<?xml version="1.0" encoding="UTF-8"?>
<svg version="1.1" xmlns="http://www.w3.org/2000/svg" width="354" height="338">
<path d="M0 0 C116.82 0 233.64 0 354 0 C354 111.54 354 223.08 354 338 C237.18 338 120.36 338 0 338 C0 226.46 0 114.92 0 0 Z " fill="#FEFEFE" transform="translate(0,0)"/>
<path d="M0 0 C2.47923801 -0.02685095 4.9581884 -0.04676547 7.4375 -0.0625 C8.14455078 -0.07087891 8.85160156 -0.07925781 9.58007812 -0.08789062 C11.38693559 -0.09653588 13.19387603 -0.05220011 15 0 C16.55494359 1.55494359 16.3443485 3.19988648 16.57250977 5.36108398 C16.67253799 6.28972763 16.77256622 7.21837128 16.87562561 8.17515564 C16.97983322 9.18856522 17.08404083 10.20197479 17.19140625 11.24609375 C17.30097153 12.28637222 17.4105368 13.3266507 17.52342224 14.39845276 C17.75504916 16.6100499 17.98439478 18.82188695 18.21166992 21.03393555 C18.55786642 24.39254747 18.91415174 27.74997881 19.27148438 31.10742188 C19.49540883 33.25774832 19.71873448 35.40813722 19.94140625 37.55859375 C20.04763809 38.55378525 20.15386993 39.54897675 20.26332092 40.57432556 C20.36019699 41.53133865 20.45707306 42.48835175 20.55688477 43.47436523 C20.64269302 44.30185776 20.72850128 45.12935028 20.81690979 45.98191833 C21.07969756 50.31374443 21 54.66021029 21 59 C4.17 59 -12.66 59 -30 59 C-30 55.04 -30 51.08 -30 47 C-28.55625 47.33 -27.1125 47.66 -25.625 48 C-17.19418648 49.65286753 -8.80915819 50.1587233 -1 46 C2.57880538 42.8738836 4.74200674 39.4953446 5.23828125 34.6953125 C5.35595978 30.61991923 5.41152132 27.78874919 3.5 24.125 C-2.42182812 19.0914461 -9.83314362 16.85295165 -17.046875 14.24609375 C-19.76349867 13.09979355 -21.75179961 11.88259499 -24 10 C-23.68306247 7.06832781 -23.36774166 5.41017339 -21.375 3.1875 C-18.07679904 1.53839952 -15.55385839 1.29800328 -12 2 C-7.90885615 3.4746551 -3.95009786 5.18386305 0 7 C0 4.69 0 2.38 0 0 Z " fill="#5EE1E6" transform="translate(114,159)"/>
<path d="M0 0 C3.63467079 1.62400184 4.77408696 2.66113044 7 6 C7.07905064 8.33199388 7.08798769 10.66832622 7 13 C9.64 13 12.28 13 15 13 C15 15.97 15 18.94 15 22 C14.0925 21.67 13.185 21.34 12.25 21 C4.92736379 18.97333099 -2.49388539 18.92641648 -9.5 22 C-13.55470992 24.30766449 -15.73147293 26.6113981 -17.4453125 30.953125 C-18.73706814 35.71988524 -18.62163612 38.78063684 -16.375 43.1875 C-11.96804615 48.40626114 -6.80248495 50.6611424 -0.375 52.5625 C7.97890668 55.05387178 7.97890668 55.05387178 11 58 C11.5625 61 11.5625 61 11 64 C8.286224 66.46706909 6.38044089 66.95610297 2.75 67.375 C-3.77507198 66.7224928 -9.55091199 64.69131768 -15 61 C-15.33 64.3 -15.66 67.6 -16 71 C-21.28 71 -26.56 71 -32 71 C-31.55289149 58.81629321 -30.39317041 46.79256506 -29 34.6875 C-28.91036987 33.90361908 -28.82073975 33.11973816 -28.72839355 32.31210327 C-28.46795398 30.04492287 -28.2036984 27.77822963 -27.9375 25.51171875 C-27.85832336 24.82895874 -27.77914673 24.14619873 -27.6975708 23.44274902 C-27.27704756 19.92305886 -26.75308434 16.46427128 -26 13 C-22.7 13 -19.4 13 -16 13 C-16.103125 12.13375 -16.20625 11.2675 -16.3125 10.375 C-15.88126027 5.71761095 -14.23508273 4.31210851 -11 1 C-7.55359623 -0.72320188 -3.7757718 -0.3723512 0 0 Z " fill="#CB6EE6" transform="translate(97,132)"/>
<path d="M0 0 C2.64 0 5.28 0 8 0 C8.33 0.99 8.66 1.98 9 3 C9.39445313 2.51402344 9.78890625 2.02804688 10.1953125 1.52734375 C13.10644846 -0.93640985 15.880502 -0.46939352 19.5546875 -0.3515625 C23.05169217 0.15120175 24.70685766 1.34855417 27 4 C29.8224018 9.78542149 29.76589884 15.6983967 29 22 C27.47368395 25.76188678 25.71456385 29.14271808 22 31 C20.35857459 31.14640501 18.7101859 31.22096589 17.0625 31.25 C16.18722656 31.27578125 15.31195313 31.3015625 14.41015625 31.328125 C12 31 12 31 9 28 C8.67 32.95 8.34 37.9 8 43 C5.36 43 2.72 43 0 43 C0 28.81 0 14.62 0 0 Z " fill="#251508" transform="translate(241,173)"/>
<path d="M0 0 C2.64 0 5.28 0 8 0 C8.11593506 0.57032959 8.23187012 1.14065918 8.35131836 1.72827148 C8.87613125 4.29883176 9.40673615 6.86816218 9.9375 9.4375 C10.11990234 10.33533203 10.30230469 11.23316406 10.49023438 12.15820312 C10.66748047 13.01220703 10.84472656 13.86621094 11.02734375 14.74609375 C11.18968506 15.53685303 11.35202637 16.3276123 11.51928711 17.14233398 C11.83290893 19.00204668 11.83290893 19.00204668 13 20 C14.65 13.4 16.3 6.8 18 0 C20.97 0 23.94 0 27 0 C27.68239354 1.99468882 28.34370484 3.99657266 29 6 C29.26425781 6.79664063 29.52851563 7.59328125 29.80078125 8.4140625 C31.28546849 13.07218076 32.39102759 17.04698391 32 22 C32.66 22 33.32 22 34 22 C34.103125 20.783125 34.20625 19.56625 34.3125 18.3125 C34.98838803 12.09035428 36.50861963 6.06869875 38 0 C40.64 0 43.28 0 46 0 C43.62564486 10.43200716 41.05598707 20.74293703 38 31 C35.03 31 32.06 31 29 31 C27.02 24.07 25.04 17.14 23 10 C21.24173272 15.27480185 19.60327481 20.21500434 18.3125 25.5625 C18.06113281 26.59503906 17.80976563 27.62757813 17.55078125 28.69140625 C17.36902344 29.45324219 17.18726563 30.21507812 17 31 C14.03 31 11.06 31 8 31 C4.61128818 20.79781442 2.21706807 10.5074875 0 0 Z " fill="#29190C" transform="translate(175,173)"/>
<path d="M0 0 C2.78028659 2.01570778 4.62857285 3.93338131 6.5 6.8125 C6.5 7.8025 6.5 8.7925 6.5 9.8125 C0.24765804 10.23638759 -1.60689691 9.82735382 -6.5 5.8125 C-10.92668417 5.35456715 -12.7626144 5.3209096 -16.5 7.8125 C-16.17 9.4625 -15.84 11.1125 -15.5 12.8125 C-14.25863281 13.18761719 -13.01726562 13.56273437 -11.73828125 13.94921875 C-10.09609858 14.4653333 -8.45418539 14.98230584 -6.8125 15.5 C-5.99587891 15.74427734 -5.17925781 15.98855469 -4.33789062 16.24023438 C0.72784734 17.86045016 4.1775379 19.43349495 7.5 23.8125 C8.35160596 26.90155514 8.11410342 29.67943535 7.5 32.8125 C5.1344053 36.93038707 2.96078377 38.42832726 -1.5 39.8125 C-4.31710155 40.14070952 -7.10341405 40.18257544 -9.9375 40.1875 C-10.67548828 40.21199219 -11.41347656 40.23648438 -12.17382812 40.26171875 C-17.40491235 40.28961787 -20.36193734 39.27024769 -24.5 35.8125 C-26.5 32.8125 -26.5 32.8125 -26.5 28.8125 C-22.54 28.3175 -22.54 28.3175 -18.5 27.8125 C-18.21125 28.451875 -17.9225 29.09125 -17.625 29.75 C-16.67176549 31.96456079 -16.67176549 31.96456079 -14.5 32.8125 C-12.85744209 32.93364921 -11.20947522 32.98790767 -9.5625 33 C-8.68722656 33.01417969 -7.81195313 33.02835938 -6.91015625 33.04296875 C-4.23755665 32.97913349 -4.23755665 32.97913349 -1.5 30.8125 C-1.995 28.3375 -1.995 28.3375 -2.5 25.8125 C-3.74136719 25.43738281 -4.98273438 25.06226563 -6.26171875 24.67578125 C-7.90390142 24.1596667 -9.54581461 23.64269416 -11.1875 23.125 C-12.00412109 22.88072266 -12.82074219 22.63644531 -13.66210938 22.38476562 C-18.7367779 20.7616935 -22.14103287 19.17044139 -25.5 14.8125 C-26.11966758 10.90859426 -26.41769743 8.51679523 -24.54296875 5.03515625 C-18.64679547 -2.62051001 -8.61815074 -2.92401543 0 0 Z " fill="#28180C" transform="translate(165.5,164.1875)"/>
<path d="M0 0 C4.25563668 1.53927284 5.98081134 4.03929156 8.30078125 7.890625 C9 10 9 10 9 17 C2.4 17 -4.2 17 -11 17 C-10.01 19.64 -9.02 22.28 -8 25 C-5.69 25 -3.38 25 -1 25 C-0.67 24.34 -0.34 23.68 0 23 C2.64 23 5.28 23 8 23 C7.07775805 26.10208655 6.42534985 27.68512087 3.7890625 29.63671875 C-1.00124733 31.97820073 -5.79476255 31.76071129 -11 31 C-14.96769429 29.08822378 -17.40174552 26.06698686 -19 22 C-20.31608874 10.15520134 -20.31608874 10.15520134 -17.25 5.375 C-11.78943204 -0.38893284 -7.78748615 -0.82278499 0 0 Z " fill="#251508" transform="translate(294,173)"/>
<path d="M0 0 C2.64 0 5.28 0 8 0 C8 10.23 8 20.46 8 31 C5.36 31 2.72 31 0 31 C0 20.77 0 10.54 0 0 Z " fill="#2C1C0F" transform="translate(225,173)"/>
<path d="M0 0 C2.85994916 0.51332421 3.72579488 1.12669809 5.4375 3.4375 C7.17152586 8.63957758 7.08332277 12.8931412 5 17.875 C3.4375 20.4375 3.4375 20.4375 2.4375 21.4375 C-1 21.25 -1 21.25 -4.5625 20.4375 C-6.82338508 17.27815245 -6.8899299 14.24310788 -6.9375 10.4375 C-6.96585938 9.40625 -6.99421875 8.375 -7.0234375 7.3125 C-6.33430199 3.01416324 -4.32432955 0.73830017 0 0 Z " fill="#F5F4F4" transform="translate(255.5625,177.5625)"/>
<path d="M0 0 C3.0625 2.1875 3.0625 2.1875 5 5 C5 6.65 5 8.3 5 10 C-0.94 10 -6.88 10 -13 10 C-12 3 -12 3 -10.7109375 1.09375 C-7.3851463 -1.03232657 -3.77281037 -0.70698898 0 0 Z " fill="#FBF6FD" transform="translate(97,135)"/>
<path d="M0 0 C1.98 0 3.96 0 6 0 C6 1.98 6 3.96 6 6 C4.68 6 3.36 6 2 6 C2.33 9.3 2.66 12.6 3 16 C-0.3 16 -3.6 16 -7 16 C-7.33 12.7 -7.66 9.4 -8 6 C-5.36 6 -2.72 6 0 6 C0 4.02 0 2.04 0 0 Z " fill="#66E2E7" transform="translate(137,142)"/>
<path d="M0 0 C3.0625 0.3125 3.0625 0.3125 4.9375 1.5625 C6.0625 3.3125 6.0625 3.3125 6.0625 7.3125 C2.1025 7.3125 -1.8575 7.3125 -5.9375 7.3125 C-4.57228261 0.48641304 -4.57228261 0.48641304 0 0 Z " fill="#F5F4F4" transform="translate(288.9375,177.6875)"/>
<path d="M0 0 C2.97 0 5.94 0 9 0 C9 1.98 9 3.96 9 6 C6.03 6 3.06 6 0 6 C0 4.02 0 2.04 0 0 Z " fill="#43352A" transform="translate(224,162)"/>
<path d="M0 0 C1.98 0 3.96 0 6 0 C6.33 1.98 6.66 3.96 7 6 C5.02 6 3.04 6 1 6 C0.67 4.02 0.34 2.04 0 0 Z " fill="#D07BE8" transform="translate(130,135)"/>
<path d="M0 0 C1.98 0 3.96 0 6 0 C6 1.98 6 3.96 6 6 C4.02 6 2.04 6 0 6 C0 4.02 0 2.04 0 0 Z " fill="#CD72E7" transform="translate(122,142)"/>
<path d="M0 0 C2.50357861 0.8345262 4.66785852 1.79371992 7 3 C5.39125 3.12375 5.39125 3.12375 3.75 3.25 C-0.36249361 4.07249872 -1.3261182 4.94413508 -4 8 C-4.99 8.33 -5.98 8.66 -7 9 C-5.66087415 4.61740632 -3.87774964 2.45906075 0 0 Z " fill="#D281E9" transform="translate(88,132)"/>
</svg>
